<svg fill="#8e8e8c" xmlns="http://www.w3.org/2000/svg" xmlns:xlink="http://www.w3.org/1999/xlink" version="1.1" x="0px" y="0px" viewBox="0 0 100 100" enable-background="new 0 0 100 100" xml:space="preserve"><symbol viewBox="-9.858 -9.858 19.716 19.716"><path   stroke-width="2.5699" stroke-miterlimit="10" d="M8.573,0c0-4.735-3.838-8.573-8.573-8.573   S-8.573-4.735-8.573,0c0,4.735,3.838,8.573,8.573,8.573S8.573,4.735,8.573,0z"/><path   stroke-width="2.5699" stroke-miterlimit="10" d="M2.858,0c0-1.578-1.279-2.858-2.858-2.858   c-1.578,0-2.858,1.279-2.858,2.858c0,1.578,1.279,2.858,2.858,2.858C1.578,2.858,2.858,1.578,2.858,0z"/></symbol><symbol viewBox="-5.525 -16.49 11.051 32.981"><path   stroke-width="2" stroke-miterlimit="10" d="M4.526-15.49h-9.051v30.981h1.559   c4.138,0,7.492-3.354,7.492-7.492V-15.49z"/></symbol><g display="none"><rect x="-1202.374" y="-173.377" display="inline" width="1328.934" height="1233.377"/></g><g><path d="M20.677,94.998h29.15c17.393,0,31.542-14.15,31.542-31.542V34.437C80.388,18.041,66.596,5,49.958,5   C32.684,5,18.631,19.053,18.631,36.327c0,0.736,0.035,1.464,0.085,2.187v56.484h1.889V95C20.629,95,20.653,94.998,20.677,94.998z    M77.59,63.456c0,15.309-12.454,27.763-27.762,27.763H35.565c8.71-4.714,14.956-13.409,16.3-23.628   c11.14-0.673,20.726-7.191,25.725-16.523V63.456z M22.495,91.149V51.382c5.045,9.166,14.544,15.545,25.561,16.209   C46.147,80.335,35.542,90.266,22.495,91.149z M49.958,8.78c10.27,0,19.238,5.652,23.975,14.005   c-2.648-1.824-5.85-2.898-9.302-2.898c-6.412,0-11.964,3.699-14.673,9.067c-2.709-5.368-8.261-9.067-14.674-9.067   c-3.45,0-6.652,1.073-9.3,2.897C30.721,14.431,39.689,8.78,49.958,8.78z M35.283,23.667c6.981,0,12.87,5.68,12.87,12.661v12.34   h3.779v-12.34h0.038c0-6.981,5.679-12.661,12.661-12.661s12.874,5.68,12.874,12.661c0,15.189-12.357,27.546-27.547,27.546   c-15.19,0-27.547-12.357-27.547-27.546C22.41,29.346,28.302,23.667,35.283,23.667z"/><path d="M68.412,37.689v-4.706h-4.706c-2.13,0-3.857,1.727-3.857,3.857v4.706h4.706C66.685,41.546,68.412,39.819,68.412,37.689z"/><path d="M35.36,41.546h4.706V36.84c0-2.13-1.727-3.857-3.857-3.857h-4.706v4.706C31.502,39.819,33.229,41.546,35.36,41.546z"/></g></svg>